<svg xmlns="http://www.w3.org/2000/svg" width="40" height="40" fill="none"><path fill="#CED2DB" d="M5.333 6c0-.368.299-.667.667-.667h17.333c.369 0 .667.299.667.667v28a.667.667 0 0 1-.667.667H6A.667.667 0 0 1 5.333 34V6z"/><path fill="#0052FF" d="M24 9.333H5.333v21.334H24V9.333z"/><path fill="#0A0B0D" d="M12.667 32.667c0-.369.298-.667.666-.667H16a.667.667 0 0 1 0 1.333h-2.667a.667.667 0 0 1-.666-.666zm2.666-25.334a.667.667 0 1 1-1.333 0 .667.667 0 0 1 1.333 0z"/><circle cx="25.333" cy="20" r="9.333" fill="#0A0B0D"/><path fill="#CED2DB" fill-rule="evenodd" d="M24 29.239a9.333 9.333 0 1 0 0-18.478V29.24z" clip-rule="evenodd"/><circle cx="25.333" cy="20" r="8" fill="#fff"/><path fill="#0052FF" d="m25.333 16 1.113 2.812 2.887.244-2.2 1.981.672 2.963-2.472-1.588L22.861 24l.672-2.963-2.2-1.981 2.888-.244L25.333 16z"/></svg>