<svg xmlns="http://www.w3.org/2000/svg" width="30" height="33" fill="none"><path fill="#D4EEFF" d="M15 0C9.106 0 4.284 4.64 4.284 11.344V25.78h21.429V11.344C25.714 4.64 20.892 0 14.999 0z"/><path fill="#56B4FC" d="M30 12.375H0V33h30V12.375z"/><path fill="#1652F0" d="M25.714 12.375H4.285v16.5h21.429v-16.5z"/><path fill="#fff" d="m15 18.563 2.84 6.187h-5.68L15 18.562z"/><path fill="#fff" d="M15 20.625c1.184 0 2.143-.923 2.143-2.063 0-1.139-.96-2.062-2.143-2.062-1.183 0-2.143.923-2.143 2.063 0 1.139.96 2.062 2.143 2.062z"/></svg>